<?xml version="1.0" standalone="no"?><!DOCTYPE svg PUBLIC "-//W3C//DTD SVG 1.1//EN" "http://www.w3.org/Graphics/SVG/1.1/DTD/svg11.dtd"><svg class="icon" width="50px" height="50.00px" viewBox="0 0 1024 1024" version="1.1" xmlns="http://www.w3.org/2000/svg"><path d="M925.32 339.09a448.88 448.88 0 1 0 35.18 174.2 446 446 0 0 0-35.18-174.2z"  /><path d="M552.6 514.24l140-140a28 28 0 0 0 0-39.6 28 28 0 0 0-39.6 0l-140 140-140-140a28 28 0 0 0-39.6 0 28 28 0 0 0 0 39.6l140 140-140 140a28 28 0 0 0 0 39.6 28 28 0 0 0 39.6 0l140-140 140 140a28 28 0 1 0 39.6-39.6z" fill="#FFFFFF" /></svg>