<?xml version="1.0" standalone="no"?><!DOCTYPE svg PUBLIC "-//W3C//DTD SVG 1.1//EN" "http://www.w3.org/Graphics/SVG/1.1/DTD/svg11.dtd"><svg class="icon" width="50px" height="50.00px" viewBox="0 0 1024 1024" version="1.1" xmlns="http://www.w3.org/2000/svg"><path d="M512 51.2C258.048 51.2 51.2 258.048 51.2 512s206.848 460.8 460.8 460.8 460.8-206.848 460.8-460.8S765.952 51.2 512 51.2z m178.176 596.992c-3.072 21.504-20.48 38.912-41.984 41.984-45.056 7.168-91.136 11.264-136.192 11.264s-91.136-4.096-136.192-11.264c-21.504-3.072-38.912-20.48-41.984-41.984-7.168-45.056-11.264-91.136-11.264-136.192s4.096-91.136 11.264-136.192c3.072-21.504 20.48-38.912 41.984-41.984 90.112-14.336 182.272-14.336 272.384 0 21.504 3.072 38.912 20.48 41.984 41.984 7.168 45.056 11.264 91.136 11.264 136.192s-4.096 91.136-11.264 136.192z" fill="#f1201c" /></svg>