<?xml version="1.0" standalone="no"?><!DOCTYPE svg PUBLIC "-//W3C//DTD SVG 1.1//EN" "http://www.w3.org/Graphics/SVG/1.1/DTD/svg11.dtd"><svg class="icon" width="200px" height="200.00px" viewBox="0 0 1024 1024" version="1.1" xmlns="http://www.w3.org/2000/svg"><path d="M145.621959 0c-44.79888 0-79.998 36.81188-79.998 81.61076v860.77848c0 44.79888 35.19912 81.61076 79.998 81.61076h732.781681a81.969151 81.969151 0 0 0 81.61076-81.61076V324.80468L657.60916 0h-511.987201z" fill="#FFD700" /><path d="M657.60916 0v233.59416c0 25.59936 17.61236 92.79768 97.61036 92.79768h204.79488L657.60916 0z" fill="#FFFFFF" /><path d="M288.594385 711.841404c3.788705-16.588385 8.063798-33.355966 12.82528-50.251544a5272.495388 5272.495388 0 0 0 18.892327-69.067073c1.433564-5.631859 2.662333-10.777331 3.686308-15.385215s1.740756-8.78058 2.252744-12.518087 0.742381-7.21902 0.742381-10.41894v-2.022349c0-0.742381-0.051199-1.663958-0.153596-2.764731-0.998375 0-3.225519 0.537587-6.681433 1.638359s-7.500612 2.559936-12.159696 4.351891-9.548561 3.814305-14.694033 6.067048-9.932552 4.531087-14.335641 6.835029l-8.780581 4.505488c-2.355141 1.20317-4.377491 2.124747-6.067048 2.764731s-3.251119 1.100772-4.659084 1.356766-2.841529 0.38399-4.351891 0.38399c-3.097523 0-5.785455-1.20317-8.012599-3.60951s-3.379116-5.503862-3.379116-9.292567c0-2.201545 0.230394-4.121497 0.665583-5.785456s1.151971-3.123122 2.099148-4.428689 2.227144-2.534337 3.814305-3.686308 3.558311-2.329542 5.862253-3.532712a330.334142 330.334142 0 0 1 162.299943-38.091847c2.892728 0.102397 5.862253 0.281593 8.934176 0.537586s6.01585 0.588785 8.934177 1.049574 5.452664 0.972776 7.654208 1.58716c2.303942 0.691183 4.300692 2.150346 5.990251 4.351892s2.559936 4.556686 2.559936 7.039824c0 1.99675-0.179196 3.942301-0.537587 5.862253s-0.972776 3.558311-1.868753 4.940677-2.073548 2.534337-3.532712 3.379115-3.225519 1.279968-5.324667 1.279968c-3.60951-0.40959-7.731007-0.895978-12.364491-1.510362s-9.318167-0.895978-14.028449-0.895978c-9.394965 0-18.764331 0.230394-28.133697 0.665584s-18.917927 1.766356-28.722481 3.9679c-0.511987 0.204795-0.81918 0.716782-0.972776 1.587161s-0.281593 1.919952-0.383991 3.225519c-0.307192 5.401465-0.742381 10.137347-1.356766 14.258844s-1.433564 8.191795-2.483138 12.287692-2.329542 8.524587-3.814304 13.286068-3.251119 10.444539-5.247869 17.100373-4.326292 14.591635-6.963026 23.858603-5.58066 20.428289-8.78058 33.535162l-7.193421 29.106472c-1.689558 6.707032-3.020724 12.722882-3.9679 18.073148s-1.766356 10.623734-2.483138 15.820405c-0.40959 1.689558-1.919952 3.302317-4.582286 4.81268s-5.785455 2.252744-9.369366 2.252743c-2.099148 0-3.9935-0.563186-5.708657-1.715157s-3.097523-2.636734-4.198295-4.428689-1.843154-3.763106-2.252744-5.913452-0.255994-4.351891 0.332792-6.451039zM553.803755 728.634584c-0.79358-2.995125-1.894353-6.476638-3.302318-10.418939s-3.020724-8.089398-4.863878-12.441289a344.516187 344.516187 0 0 0-19.045924-38.091848 112.893178 112.893178 0 0 0-5.913452-8.934177l-9.753356 7.807805-11.238119 9.062174c-3.891103 3.148721-7.884603 6.297443-11.929302 9.446163s-8.0126 6.067048-11.929302 8.780581a986.138547 986.138547 0 0 1-24.012199 16.204395c-4.607885 2.995125-9.292568 5.913452-14.105248 8.78058s-9.394965 5.401465-13.798055 7.654209-8.473388 4.070298-12.236494 5.478263-6.835029 2.099148-9.21577 2.099147c-3.788705 0-6.527837-1.228769-8.166195-3.686307s-2.483138-5.171071-2.483138-8.166196c0-2.79033 0.332792-5.145471 0.972775-7.039824s2.227144-3.455914 4.735882-4.659084c20.889078-10.111747 40.702982-21.58026 59.390515-34.431139s35.736707-27.084123 51.147522-42.674133l-3.071924-8.550186-4.044699-11.314917c-1.433564-4.044699-2.969526-8.242994-4.582285-12.594886l-4.659083-12.594885c-1.510362-4.044699-2.892728-7.756606-4.198296-11.110122l-3.148721-8.166196c-1.99675-4.991875-4.198295-9.138972-6.604635-12.441289s-4.659084-6.297443-6.758231-9.010975-3.839904-5.350266-5.247869-7.961401-2.099148-5.708657-2.099147-9.292567c0-1.61276 0.358391-3.276718 1.049574-5.017475a16.665183 16.665183 0 0 1 7.654208-8.550186 12.41569 12.41569 0 0 1 5.990251-1.433564c2.40634 0 4.684683 0.460788 6.835029 1.356766s4.095898 2.047949 5.862253 3.455914 3.327917 2.995125 4.735882 4.812679 2.611135 3.60951 3.60951 5.401465c3.404715 6.195045 6.630234 13.260468 9.676558 21.145072s5.862253 15.718007 8.473388 23.474613l7.19342 21.375465c2.201545 6.502237 4.147096 11.442914 5.862253 14.847629 6.911827-7.295818 13.362866-14.335642 19.429915-21.068273s11.698908-13.337267 16.946776-19.788305 10.086148-12.825279 14.463638-19.122722 8.294193-12.697283 11.698908-19.19952c1.689558-3.19992 3.097523-6.425439 4.198295-9.676559s2.559936-6.169446 4.351891-8.78058a16.511587 16.511587 0 0 1 12.748481-5.119872c2.099148 0 3.865503 0.435189 5.324667 1.279968s2.636734 1.971151 3.532712 3.379116 1.561561 2.995125 1.945551 4.812679 0.588785 3.660708 0.588786 5.555061a36.376691 36.376691 0 0 1-0.895978 7.807805c-1.510362 5.19667-3.558311 10.137347-6.143846 14.847629s-5.60626 9.343766-9.010975 13.951651-7.091023 9.19017-11.110122 13.798055-8.140596 9.394965-12.441289 14.41244c-6.195045 7.19342-11.878103 13.644459-17.023575 19.353116s-9.59976 10.598135-13.337266 14.694033-6.80943 7.449414-9.138972 10.060548-3.865503 4.505487-4.582285 5.708657c0 0.998375 0.307192 2.073548 0.895977 3.22552s1.254369 2.278343 1.945552 3.379115c8.0126 12.594885 14.617235 23.577011 19.865103 32.920777s9.446164 17.305167 12.594885 23.858604 5.350266 11.801305 6.604635 15.743606 1.868753 6.835029 1.868753 8.626985c0 1.61276-0.230394 3.327917-0.665583 5.17107s-1.20317 3.58391-2.252744 5.171071-2.40634 2.943926-4.044699 4.044699-3.635109 1.638359-5.913452 1.638359c-9.625359-0.076798-16.025199-4.479888-19.225119-13.286068zM704.251194 711.841404c3.788705-16.588385 8.063798-33.355966 12.825279-50.251544a5272.495388 5272.495388 0 0 0 18.892328-69.067073c1.433564-5.631859 2.662333-10.777331 3.686308-15.385215s1.740756-8.78058 2.252743-12.518087 0.742381-7.21902 0.742382-10.41894v-2.022349c0-0.742381-0.051199-1.663958-0.153596-2.764731-0.998375 0-3.225519 0.537587-6.681433 1.638359s-7.500612 2.559936-12.159696 4.351891-9.548561 3.814305-14.694033 6.067048-9.932552 4.531087-14.335642 6.835029l-8.78058 4.505488c-2.355141 1.20317-4.377491 2.124747-6.067048 2.764731s-3.251119 1.100772-4.659084 1.356766-2.841529 0.38399-4.351891 0.38399c-3.097523 0-5.785455-1.20317-8.0126-3.60951s-3.379116-5.503862-3.379115-9.292567c0-2.201545 0.230394-4.121497 0.665583-5.785456s1.151971-3.123122 2.099147-4.428689 2.227144-2.534337 3.814305-3.686308 3.558311-2.329542 5.862254-3.532712a330.334142 330.334142 0 0 1 162.299942-38.091847c2.892728 0.102397 5.862253 0.281593 8.934177 0.537586s6.01585 0.588785 8.934176 1.049574 5.452664 0.972776 7.654209 1.58716c2.303942 0.691183 4.300692 2.150346 5.99025 4.351892s2.559936 4.556686 2.559936 7.039824c0 1.99675-0.179196 3.942301-0.537586 5.862253s-0.972776 3.558311-1.868754 4.940677-2.073548 2.534337-3.532711 3.379115-3.225519 1.279968-5.324667 1.279968c-3.60951-0.40959-7.731007-0.895978-12.364491-1.510362s-9.318167-0.895978-14.028449-0.895978c-9.394965 0-18.764331 0.230394-28.133697 0.665584s-18.917927 1.766356-28.722482 3.9679c-0.511987 0.204795-0.81918 0.716782-0.972776 1.587161s-0.281593 1.919952-0.38399 3.225519c-0.307192 5.401465-0.742381 10.137347-1.356766 14.258844s-1.433564 8.191795-2.483138 12.287692-2.329542 8.524587-3.814305 13.286068-3.251119 10.444539-5.247868 17.100373-4.326292 14.591635-6.963026 23.858603-5.58066 20.428289-8.780581 33.535162l-7.19342 29.106472c-1.689558 6.707032-3.020724 12.722882-3.967901 18.073148s-1.766356 10.623734-2.483138 15.820405c-0.40959 1.689558-1.919952 3.302317-4.582285 4.81268s-5.785455 2.252744-9.369366 2.252743c-2.099148 0-3.9935-0.563186-5.708657-1.715157s-3.097523-2.636734-4.198295-4.428689-1.843154-3.763106-2.252744-5.913452-0.281593-4.351891 0.332792-6.451039z" fill="#FFFFFF" /></svg>