<?xml version="1.0" standalone="no"?><!DOCTYPE svg PUBLIC "-//W3C//DTD SVG 1.1//EN" "http://www.w3.org/Graphics/SVG/1.1/DTD/svg11.dtd"><svg class="icon" width="60px" height="60.00px" viewBox="0 0 1024 1024" version="1.1" xmlns="http://www.w3.org/2000/svg"><path d="M835.669333 128H640a42.666667 42.666667 0 1 1 0-85.333333h298.666667a42.666667 42.666667 0 0 1 42.666666 42.666666v298.666667a42.666667 42.666667 0 1 1-85.333333 0V188.330667L670.165333 414.165333a42.666667 42.666667 0 0 1-60.330666-60.330666L835.669333 128zM128 188.330667V384a42.666667 42.666667 0 1 1-85.333333 0V85.333333a42.666667 42.666667 0 0 1 42.666666-42.666666h298.666667a42.666667 42.666667 0 1 1 0 85.333333H188.330667l225.834666 225.834667a42.666667 42.666667 0 0 1-60.330666 60.330666L128 188.330667zM835.669333 896L609.834667 670.165333a42.666667 42.666667 0 0 1 60.330666-60.330666L896 835.669333V640a42.666667 42.666667 0 1 1 85.333333 0v298.666667a42.666667 42.666667 0 0 1-42.666666 42.666666H640a42.666667 42.666667 0 1 1 0-85.333333h195.669333zM128 835.669333l225.834667-225.834666a42.666667 42.666667 0 0 1 60.330666 60.330666L188.330667 896H384a42.666667 42.666667 0 1 1 0 85.333333H85.333333a42.666667 42.666667 0 0 1-42.666666-42.666666V640a42.666667 42.666667 0 1 1 85.333333 0v195.669333z" fill="#ffffff" /></svg>