<?xml version="1.0" standalone="no"?><!DOCTYPE svg PUBLIC "-//W3C//DTD SVG 1.1//EN" "http://www.w3.org/Graphics/SVG/1.1/DTD/svg11.dtd"><svg class="icon" width="200px" height="200.00px" viewBox="0 0 1024 1024" version="1.1" xmlns="http://www.w3.org/2000/svg"><path d="M145.621959 0c-44.79888 0-79.998 36.81188-79.998 81.61076v860.77848c0 44.79888 35.19912 81.61076 79.998 81.61076h732.781681a81.969151 81.969151 0 0 0 81.61076-81.61076V324.80468L657.60916 0h-511.987201z" fill="#25B39E" /><path d="M657.60916 0v233.59416c0 25.59936 17.61236 92.79768 97.61036 92.79768h204.79488L657.60916 0z" fill="#FFFFFF" /><path d="M160.264793 641.878353c0.895978-3.891103 1.971151-8.217395 3.22552-12.978875s2.611135-9.676558 4.044699-14.770831a2234.670533 2234.670533 0 0 1 12.825279-43.877303 651.887703 651.887703 0 0 0 13.490863-50.789131c1.99675-3.891103 4.710282-6.681433 8.089397-8.319792s7.091023-2.483138 11.110123-2.483137c3.19992 1.689558 5.734257 4.0191 7.57741 6.963025s2.764731 6.271843 2.764731 9.983751c0 2.611135-0.435189 5.58066-1.279968 8.934176s-1.919952 6.937427-3.225519 10.80293-2.739132 7.910202-4.351891 12.159696-3.148721 8.626984-4.659084 13.132472l-8.39659 24.600985c-2.79033 8.191795-5.555061 16.844379-8.242994 25.957751-0.691183 2.40634-1.459164 4.81268-2.252744 7.19342s-1.61276 4.991875-2.483138 7.807805-1.766356 5.913452-2.76473 9.369366-1.99675 7.423814-2.995126 11.929302c-1.20317 5.299068-2.252744 10.623734-3.148721 15.974s-1.740756 10.726132-2.559936 16.127597-1.689558 10.854129-2.687933 16.357991-2.201545 11.058924-3.609509 16.639584c-0.511987 1.99675-1.382365 3.763106-2.636734 5.324667a19.481113 19.481113 0 0 1-9.343767 6.527837c-1.791955 0.614385-3.507112 0.895978-5.094273 0.895977s-3.123122-0.127997-4.582285-0.38399-2.585535-0.81918-3.379115-1.715157c-1.20317-1.305567-2.150346-2.739132-2.841529-4.351891a12.79968 12.79968 0 0 1-0.742382-7.961401l18.149946-79.050824zM228.205495 718.087648c2.995125-11.698908 5.887853-22.604235 8.703782-32.690383s5.529462-19.762706 8.166196-29.029674l7.731007-26.930527c2.508737-8.703782 4.889478-17.561161 7.19342-26.546536 0.895978-3.507112 1.433564-6.886228 1.58716-10.137347s0.614385-6.630234 1.433564-10.137346c0.40959-1.20317 1.126372-2.278343 2.175946-3.22552a18.585135 18.585135 0 0 1 11.775706-4.710282c2.79033 0 5.119872 0.332792 6.963026 0.972776s3.353516 1.535962 4.505487 2.636734 1.945551 2.431939 2.40634 3.967901 0.665583 3.276718 0.665583 5.17107c0 3.404715-0.537587 6.835029-1.638359 10.265344s-2.457539 7.21902-4.044699 11.314917c4.710282-3.711907 9.522962-7.19342 14.463639-10.495738s10.060548-6.195045 15.308417-8.703782 10.623734-4.505487 16.127597-5.99025 11.21252-2.252744 17.100372-2.252744c2.687933 0 5.401465 0.435189 8.089398 1.279968s5.119872 2.175946 7.270218 3.967901 3.942301 4.147096 5.401465 7.039824 2.278343 6.451039 2.483138 10.649333c4.300692-2.892728 8.754981-5.836654 13.337267-8.78058s9.266968-5.60626 14.028449-7.961401 9.497363-4.249494 14.258844-5.708657 9.369366-2.175946 13.874853-2.175946c6.707032 0 12.236494 0.870378 16.562786 2.636734s7.807805 4.095898 10.342141 7.039824 4.351891 6.374241 5.401465 10.265344 1.58716 8.038199 1.58716 12.441289c0 4.81268-0.460788 9.753356-1.356766 14.847628s-1.894353 9.958151-2.995125 14.540437c-2.892728 11.59651-6.143846 22.578636-9.753356 32.920777s-7.500612 20.81228-11.698908 31.436014l-3.148721 7.961401c-1.100772 2.81593-2.38074 5.375866-3.814304 7.731007s-3.148721 4.300692-5.094273 5.862253-4.223894 2.329542-6.835029 2.329542c-5.887853 0-9.958151-0.998375-12.159696-2.995125s-3.302317-4.838279-3.302318-8.550187c0-0.998375 0.051199-2.150346 0.153596-3.455913s0.358391-2.559936 0.742382-3.737507c0.40959-1.510362 1.305567-3.686308 2.687933-6.527837s2.918327-5.913452 4.582285-9.215769 3.276718-6.630234 4.863879-9.983751 2.79033-6.271843 3.609509-8.78058c1.305567-4.300692 2.81593-9.266968 4.582286-14.924427s3.430314-11.340516 5.017474-17.100372 2.918327-11.21252 3.967901-16.357991 1.58716-9.318167 1.58716-12.518088c0-1.510362-0.153596-2.995125-0.460788-4.505487s-0.81918-2.79033-1.58716-3.891103-1.791955-1.99675-3.148722-2.687932-3.071923-1.049574-5.17107-1.049574c-2.995125 0-6.579036 0.844779-10.726132 2.559936s-8.447789 3.916702-12.902078 6.681433-8.78058 5.862253-12.978875 9.292567-7.807805 6.886228-10.80293 10.265344c-2.099148 2.40634-4.095898 4.351891-5.99025 5.862253s-3.788705 2.662333-5.708658 3.455914c-0.204795 0.40959-0.691183 1.715157-1.510362 3.967901s-1.740756 4.940676-2.841529 8.089397-2.252744 6.553436-3.455913 10.188546l-3.379116 10.188545-2.636734 7.961401c-0.716782 2.150346-1.049574 3.327917-1.049574 3.532712-0.691183 2.79033-1.305567 5.683058-1.791955 8.626984l-1.356766 8.473388c-0.40959 2.687933-0.767981 5.58066-1.126372 8.626984s-1.049574 5.887853-2.099147 8.550187-2.662333 4.81268-4.81268 6.527837-5.171071 2.559936-9.062174 2.559936c-1.99675 0-3.814305-0.511987-5.478263-1.510363s-3.071923-2.278343-4.275093-3.814304-2.150346-3.302317-2.841529-5.247869-1.100772-3.916702-1.20317-5.913452c2.303942-9.010975 4.556686-17.100372 6.758231-24.293793s4.40309-14.105247 6.604635-20.709882 4.326292-13.234869 6.374241-19.865104 4.070298-13.977251 6.067048-21.96425c0.511987-1.894353 0.895978-3.763106 1.20317-5.63186s0.460788-3.481513 0.460789-4.863878c0-2.40634-0.511987-4.377491-1.510363-5.913452s-2.739132-2.329542-5.247868-2.329542c-4.095898 0-8.166196 0.81918-12.236494 2.483138s-8.422189 4.223894-13.132472 7.731007-9.932552 7.961401-15.666808 13.337266-12.364491 11.852504-19.865104 19.353116c-0.79358 1.510362-1.843154 4.300692-3.148721 8.39659s-2.636734 8.447789-3.967901 13.055674-2.585535 8.882978-3.686308 12.825279-1.791955 6.579036-2.099147 7.884603c-1.100772 4.198295-1.843154 7.731007-2.252744 10.572536l-1.049574 7.731007c-0.204795 1.20317-0.511987 3.174321-0.895977 5.913452s-1.126372 5.529462-2.175946 8.319792-2.534337 5.273468-4.428689 7.423814-4.40309 3.225519-7.500613 3.22552c-4.607885 0-8.370991-1.254369-11.314917-3.737507a11.878103 11.878103 0 0 1-4.275093-11.391715 18.687533 18.687533 0 0 1 0.486388-1.99675zM564.81148 721.543561c0-2.892728 0.358391-6.374241 1.049573-10.418939s1.049574-9.062173 1.049574-15.078023c-3.302317 2.40634-6.937427 5.247869-10.956526 8.550186s-8.140596 6.451039-12.441289 9.446164-8.575786 5.529462-12.825279 7.57741-8.217395 3.071923-11.929302 3.071924c-2.995125 0-5.862253-0.460788-8.550186-1.356766s-4.991875-2.099148-6.911827-3.60951c-5.299068-4.198295-9.113372-8.39659-11.468514-12.594885s-3.532712-9.087773-3.532711-14.694033c0-2.508737 0.230394-5.094273 0.665583-7.807805s1.126372-5.811055 2.022349-9.292567c3.788705-15.794805 10.316542-30.41204 19.583511-43.877303s20.735482-24.933777 34.431139-34.43114c5.299068-3.711907 10.598135-6.067048 15.897203-7.116622s10.546936-1.58716 15.743606-1.58716c2.303942 0 4.863878 0.153596 7.731007 0.460788s5.427064 0.588785 7.731006 0.895978c2.303942-0.511987 4.172696-0.844779 5.63186-1.049574s2.969526-0.307192 4.582285-0.307192c2.995125 0 5.503862 0.40959 7.500613 1.20317s3.60951 1.868753 4.812679 3.225519 2.073548 2.892728 2.636734 4.659084 0.81918 3.58391 0.81918 5.478263c0 2.611135-0.40959 5.068673-1.20317 7.423814l-2.40634 7.116622-19.788305 79.050824c-0.40959 4.300692-0.742381 8.242994-1.049574 11.852504s-0.895978 6.937427-1.791955 10.060548l-1.126372 3.379116c-0.460788 1.356766-1.177571 2.662333-2.175946 3.891102s-2.252744 2.329542-3.737506 3.22552-3.455914 1.356766-5.862254 1.356766c-3.097523 0-5.58066-0.204795-7.423814-0.588785s-3.276718-0.972776-4.275093-1.715158-1.638359-1.638359-1.945551-2.687932-0.486388-2.329542-0.486388-3.711908z m-49.816355-45.310867c-0.40959 1.407965-0.81918 3.404715-1.279968 5.99025s-0.665583 5.19667-0.665583 7.807805c0 2.687933 0.40959 5.119872 1.20317 7.270218s2.559936 3.225519 5.247868 3.22552c4.198295 0 8.114997-0.921577 11.775706-2.764731s7.065423-4.070298 10.265343-6.681433c4.300692-3.507112 8.678183-7.423814 13.132472-11.775706s8.652584-8.934177 12.594885-13.721257 7.449414-9.727757 10.495738-14.77083a61.59206 61.59206 0 0 0 8.703782-25.138572c0.537587-3.814305 0.81918-7.19342 0.81918-10.188545 0-1.305567-0.307192-2.585535-0.895978-3.814305s-1.740756-1.868753-3.455913-1.868753c-4.889478 0-9.830154 0.947176-14.770831 2.841529s-9.727757 4.454289-14.335642 7.654209-8.985375 6.963026-13.132471 11.314917-7.935802 9.010975-11.314918 13.951651-6.323042 10.060548-8.78058 15.308417-4.300692 10.367741-5.60626 15.359616zM649.238169 797.292068a8.498988 8.498988 0 0 1-5.452664-2.175946 8.959776 8.959776 0 0 1-3.071923-6.963026c0-1.100772 0.153596-2.252744 0.460789-3.455913 0.79358-3.302317 1.638359-5.964651 2.559936-8.0126s2.201545-3.763106 3.891102-5.171071 3.9935-2.585535 6.911828-3.532712 6.707032-1.919952 11.391715-2.918327c2.995125-0.588785 5.836654-1.279968 8.473388-2.022349s4.81268-1.663958 6.527837-2.764731c5.094273-4.505487 9.420564-9.138972 12.978875-13.951651s6.553436-9.778956 9.010975-14.924427 4.505487-10.41894 6.143846-15.820404 3.225519-10.905327 4.735882-16.511588c0.588785-1.894353 1.126372-3.865503 1.58716-5.913452s1.023974-4.377491 1.715157-6.963026c-3.788705 3.302317-7.756606 6.604635-11.852503 9.906953s-8.294193 6.246244-12.594885 8.857378-8.678183 4.735882-13.132472 6.374241-8.882978 2.483138-13.286068 2.483138c-2.611135 0-5.529462-0.79358-8.78058-2.40634s-6.323042-3.711907-9.21577-6.297443-5.350266-5.631859-7.347016-9.062173-2.995125-7.065423-2.995125-10.879728c0-2.40634 0.307192-4.991875 0.895977-7.807805s1.151971-5.299068 1.638359-7.500612c1.61276-6.604635 3.942301-13.004475 7.039824-19.19952s6.707032-12.108497 10.80293-17.689158 8.601385-10.930927 13.490863-15.974001 10.00935-9.727757 15.308417-14.028449c6.604635-5.401465 13.20927-9.292568 19.788305-11.698908s13.59326-3.60951 20.991476-3.609509c3.097523 0 6.067048 0.153596 8.934176 0.460788s5.555061 0.921577 8.089398 1.868753 4.915077 2.355141 7.116622 4.198295 4.198295 4.275093 5.99025 7.270219c0.40959 0.691183 0.716782 1.535962 0.972776 2.483137s0.38399 1.766356 0.38399 2.483138c0 0.79358-0.230394 2.764731-0.665583 5.913453s-1.049574 7.039824-1.791955 11.698907-1.638359 9.855754-2.687933 15.59001l-3.225519 17.407565-3.302318 17.253969c-1.100772 5.862253-2.150346 10.726132-3.148721 15.231619-1.689558 7.910202-3.814305 16.050799-6.374241 24.447389s-5.657459 16.588385-9.292567 24.600985-7.935802 15.538812-12.82528 22.655433-10.598135 13.337267-17.100372 18.661934-13.849254 9.59976-22.041049 12.748481-17.433164 4.659084-27.647309 4.659084z m14.847629-124.208095c-0.307192 1.20317-0.563186 2.431939-0.81918 3.686308s-0.38399 2.483138-0.38399 3.686308c0 2.201545 0.40959 4.095898 1.20317 5.708657s2.252744 2.40634 4.351891 2.40634c3.302317 0 7.167821-1.177571 11.62211-3.532712s8.908577-5.324667 13.337266-8.934177 8.652584-7.500612 12.594885-11.698907 7.065423-8.191795 9.369366-12.0061a181.038674 181.038674 0 0 0 8.908577-15.666808c1.638359-3.225519 3.123122-6.502237 4.42869-9.753356s2.099148-6.118247 2.406339-8.626985c0-1.689558-0.358391-3.276718-1.049573-4.735881a25.59936 25.59936 0 0 1-1.791956-6.067049h-1.356766c-2.40634 0-5.145471 0.767981-8.242994 2.329542s-6.374241 3.58391-9.830154 6.067048-6.937427 5.324667-10.418939 8.473389a186.209745 186.209745 0 0 0-18.380341 19.045923c-2.559936 3.046324-4.531087 5.734257-5.913452 8.0126-2.099148 3.302317-4.0191 6.630234-5.785455 9.98375s-3.148721 7.21902-4.249494 11.62211zM784.095598 670.088848c0-4.300692 1.151971-7.961401 3.455913-10.956526s5.350266-4.991875 9.138972-5.990251a138.287743 138.287743 0 0 1 13.644459-21.17067c3.404715-4.40309 7.270218-8.831779 11.622109-13.286068s9.138972-8.498988 14.41244-12.159696 10.905327-6.630234 16.946776-8.934177 12.466888-3.455914 19.276318-3.455913c5.811055 0 10.854129 0.691183 15.154821 2.099147s7.859004 3.353516 10.649334 5.862254 4.889478 5.478263 6.297443 8.934176 2.099148 7.167821 2.099147 11.186921c0 3.404715-0.460788 6.655834-1.356766 9.753356-1.407965 5.60626-3.9935 10.495738-7.807805 14.694032s-8.268593 7.884603-13.414064 11.033325-10.751731 5.785455-16.793181 7.884602-12.108497 3.839904-18.149946 5.247869-11.878103 2.483138-17.484363 3.22552-10.444539 1.331167-14.540436 1.715157c-0.895978 1.791955-1.663958 4.070298-2.329542 6.835029s-0.972776 5.427064-0.972776 8.0126c0 5.811055 2.303942 10.290943 6.911828 13.490862s10.956526 4.81268 19.045923 4.81268c4.710282 0 9.19017-0.537587 13.490863-1.58716s8.370991-2.40634 12.236494-4.044699 7.475013-3.455914 10.879728-5.401465 6.502237-3.865503 9.292568-5.785456c3.60951-2.40634 7.014225-4.428689 10.265343-6.067048s6.118247-2.483138 8.626985-2.483138 4.095898 0.614385 4.812679 1.868753 1.049574 2.585535 1.049574 3.967901a34.251944 34.251944 0 0 1-0.307192 4.198295 25.804155 25.804155 0 0 1-8.703783 14.566036c-10.39334 8.191795-21.068273 14.054049-32.024799 17.561161s-22.629834 5.247869-35.019925 5.247869c-2.40634 0-5.222269-0.153596-8.473388-0.460789s-6.630234-0.895978-10.137346-1.791955-6.937427-2.201545-10.342142-3.891103a31.538412 31.538412 0 0 1-15.513212-17.100372 40.037399 40.037399 0 0 1-2.483138-14.847629c0-4.710282 0.639984-9.958151 1.945552-15.743606-1.305567-0.204795-2.534337-0.870378-3.686308-2.02235s-1.715157-2.81593-1.715157-5.017474z m93.898452-41.547762c0.204795-0.511987 0.307192-0.947176 0.307192-1.356766v-1.356766c0-2.687933-0.998375-4.735882-2.995125-6.067048s-4.40309-2.022349-7.19342-2.022349c-4.40309 0-8.729382 1.151971-12.978875 3.455913s-8.242994 5.171071-12.0061 8.626984-7.065423 7.142221-9.983751 11.110123-5.145471 7.526212-6.758231 10.726132c7.19342-0.588785 13.798055-1.58716 19.788306-2.918327s11.21252-3.046324 15.666808-5.094273 8.038199-4.351891 10.80293-6.911827 4.556686-5.299068 5.350266-8.191796z" fill="#FFFFFF" /></svg>